<?xml version="1.0" encoding="UTF-8" standalone="no"?>
<!-- Generator: Adobe Illustrator 16.0.0, SVG Export Plug-In . SVG Version: 6.00 Build 0)  -->

<svg
   xmlns:dc="http://purl.org/dc/elements/1.1/"
   xmlns:cc="http://creativecommons.org/ns#"
   xmlns:rdf="http://www.w3.org/1999/02/22-rdf-syntax-ns#"
   xmlns:svg="http://www.w3.org/2000/svg"
   xmlns="http://www.w3.org/2000/svg"
   xmlns:sodipodi="http://sodipodi.sourceforge.net/DTD/sodipodi-0.dtd"
   xmlns:inkscape="http://www.inkscape.org/namespaces/inkscape"
   version="1.1"
   id="Layer_1"
   x="0px"
   y="0px"
   width="48px"
   height="48px"
   viewBox="0 0 48 48"
   enable-background="new 0 0 48 48"
   xml:space="preserve"
   inkscape:version="0.48.4 r9939"
   sodipodi:docname="shield97.svg"><metadata
     id="metadata13"><rdf:RDF><cc:Work
         rdf:about=""><dc:format>image/svg+xml</dc:format><dc:type
           rdf:resource="http://purl.org/dc/dcmitype/StillImage" /><dc:title></dc:title></cc:Work></rdf:RDF></metadata><defs
     id="defs11" /><sodipodi:namedview
     pagecolor="#ffffff"
     bordercolor="#666666"
     borderopacity="1"
     objecttolerance="10"
     gridtolerance="10"
     guidetolerance="10"
     inkscape:pageopacity="0"
     inkscape:pageshadow="2"
     inkscape:window-width="1039"
     inkscape:window-height="774"
     id="namedview9"
     showgrid="false"
     inkscape:zoom="4.9166667"
     inkscape:cx="24"
     inkscape:cy="24"
     inkscape:window-x="75"
     inkscape:window-y="34"
     inkscape:window-maximized="0"
     inkscape:current-layer="Layer_1" /><g
     id="g3"
     style="fill:#f2f2f2"><path
       d="M44.083,7.732L24.745,1.693c-0.484-0.151-1.006-0.151-1.49,0L3.916,7.732c-1.044,0.326-1.755,1.292-1.755,2.386   c0,26.74,13.511,33.13,20.77,36.563c0.339,0.16,0.704,0.24,1.069,0.24s0.73-0.08,1.069-0.24   c7.258-3.434,20.769-9.825,20.769-36.563C45.838,9.024,45.127,8.058,44.083,7.732z M24,41.653   C17.108,38.342,7.701,32.857,7.184,11.95L24,6.698l16.815,5.251C40.298,32.856,30.892,38.341,24,41.653z"
       id="path5"
       style="fill:#f2f2f2" /><path
       d="M23.239,13.104l-1.989,6.593l-6.886-0.145c-0.35-0.007-0.663,0.215-0.771,0.548c-0.108,0.333,0.015,0.697,0.302,0.896   l5.656,3.93l-2.266,6.504c-0.115,0.331,0,0.697,0.282,0.903c0.283,0.206,0.668,0.202,0.946-0.01l5.485-4.165l5.485,4.165   c0.278,0.211,0.663,0.215,0.946,0.01c0.282-0.206,0.397-0.572,0.282-0.903l-2.266-6.504l5.656-3.93   c0.287-0.199,0.41-0.564,0.302-0.896c-0.108-0.333-0.422-0.556-0.771-0.548l-6.886,0.145l-1.989-6.593   c-0.102-0.335-0.41-0.564-0.76-0.564S23.341,12.769,23.239,13.104z"
       id="path7"
       style="fill:#f2f2f2" /></g></svg>